<svg width="30" height="22" viewBox="0 0 30 22" fill="none" xmlns="http://www.w3.org/2000/svg">
<path fill-rule="evenodd" clip-rule="evenodd" d="M21.6847 16.7808C23.616 16.7808 24.6952 15.5239 24.6952 14.5229C24.6952 13.5219 23.616 12.265 21.6847 12.265C19.7535 12.265 18.6742 13.5219 18.6742 14.5229C18.6742 15.5239 19.7535 16.7808 21.6847 16.7808ZM21.6847 18.2861C24.1789 18.2861 26.2005 16.6009 26.2005 14.5229C26.2005 12.4449 24.1789 10.7598 21.6847 10.7598C19.1905 10.7598 17.1689 12.4449 17.1689 14.5229C17.1689 16.6009 19.1905 18.2861 21.6847 18.2861Z" fill="black"/>
<path d="M8.68491 2.57599C9.18918 2.44804 9.6972 2.24332 10.0622 1.97388C11.0181 1.27093 11.5728 -0.143262 10.3497 0.0117796C9.99374 0.0569373 9.73709 0.0659687 9.52711 0.073495C9.01682 0.0908054 8.78953 0.0990847 8.11216 0.598078C7.85359 0.787001 7.61389 1.00049 7.39641 1.23555C6.34349 0.45282 4.94284 0.102848 2.49304 0.223268C2.39323 0.223268 2.29752 0.262915 2.22694 0.333488C2.15637 0.404061 2.11672 0.499778 2.11672 0.599583C2.11672 0.699388 2.15637 0.795105 2.22694 0.865678C2.29752 0.93625 2.39323 0.975897 2.49304 0.975897H3.80035C4.01561 1.11438 4.19925 1.24383 4.36257 1.36726L1.66515 4.73904H1.50559C1.27088 4.73899 1.03942 4.79382 0.829676 4.89916C0.619937 5.0045 0.437737 5.15743 0.297628 5.34573C0.157519 5.53403 0.0633831 5.75248 0.0227402 5.98364C-0.0179026 6.2148 -0.00392689 6.45226 0.0635512 6.67706L0.28934 7.42969C0.382414 7.73976 0.572973 8.01156 0.832741 8.20475C1.09251 8.39795 1.40764 8.50226 1.73138 8.50219H4.26171C4.57979 8.50234 4.88964 8.60326 5.14681 8.79044L6.79506 9.98863C6.84474 10.0248 6.89592 10.0579 6.94785 10.0865C8.12722 13.1271 9.37131 15.4949 10.7637 16.6863L11.0233 19.8022C10.8373 19.8336 10.6699 19.9338 10.5542 20.0828C10.4386 20.2319 10.3831 20.4189 10.3988 20.6069C10.4145 20.7949 10.5003 20.9702 10.6391 21.098C10.7779 21.2257 10.9596 21.2967 11.1483 21.2969H13.4062V14.5232H20.7894C21.9033 15.6078 23.1527 16.4582 25.0719 16.7811L25.3233 19.8022C25.1373 19.8336 24.9698 19.9338 24.8542 20.0828C24.7385 20.2319 24.683 20.4189 24.6988 20.6069C24.7145 20.7949 24.8002 20.9702 24.939 21.098C25.0778 21.2257 25.2596 21.2967 25.4482 21.2969H27.7061V7.74956C27.7097 6.72782 27.3734 5.7339 26.7503 4.92419C27.2207 5.05063 27.5496 5.23502 27.7814 5.45855C28.2006 5.86121 28.4587 6.53933 28.4587 7.74956L28.75 11.8288C28.5731 12.1035 28.4587 12.534 28.4587 13.018C28.4587 13.8496 28.7959 14.5232 29.2114 14.5232C29.6268 14.5232 29.964 13.8496 29.964 13.018C29.964 12.534 29.8496 12.1035 29.6727 11.8288L29.964 7.74956C29.964 6.36924 29.6757 5.19062 28.8245 4.37251C27.9838 3.56494 26.7503 3.26088 25.2322 3.23529C25.175 3.23378 23.6088 3.23378 23.5666 3.23378V3.23905C23.497 3.23559 23.4272 3.23383 23.3574 3.23378H12.2772C10.8216 3.23378 9.72204 3.01703 8.80007 2.73103L8.68491 2.57599Z" fill="black"/>
<path d="M17.9777 15.1016L16.6621 15.6397L17.2326 17.0328L18.5474 16.4954L17.9777 15.1016ZM18.5813 18.1798L19.3783 16.6971L20.7045 17.4106L19.9074 18.8933L18.5813 18.1798ZM21.6927 17.4723L22.0118 19.1251L23.49 18.8391L23.1701 17.1863L21.6919 17.4723H21.6927Z" fill="black"/>
</svg>
