<svg width="17" height="19" viewBox="0 0 17 19" fill="none" xmlns="http://www.w3.org/2000/svg">
<path d="M12.75 15.8334C12.75 16.6732 12.4142 17.4787 11.8164 18.0725C11.2186 18.6664 10.4079 19 9.5625 19H3.1875C2.34212 19 1.53137 18.6664 0.933597 18.0725C0.335825 17.4787 0 16.6732 0 15.8334L0 6.33359H13.8125C14.6579 6.33359 15.4686 6.66722 16.0664 7.26107C16.6642 7.85492 17 8.66036 17 9.50019V12.6668C17 13.5066 16.6642 14.3121 16.0664 14.9059C15.4686 15.4998 14.6579 15.8334 13.8125 15.8334H12.75ZM0.0371875 4.22253C0.16932 3.31303 0.637895 2.48511 1.35144 1.90037C2.06498 1.31563 2.97227 1.01607 3.89619 1.06015C4.56275 0.52332 5.36246 0.174596 6.21141 0.0505557C7.06036 -0.073485 7.92727 0.0317296 8.72119 0.355162C9.51511 0.678594 10.2068 1.20832 10.7237 1.88878C11.2405 2.56924 11.5635 3.37534 11.6588 4.22253H0.0371875ZM4.25 8.44466C3.96821 8.44466 3.69796 8.55587 3.4987 8.75382C3.29944 8.95177 3.1875 9.22025 3.1875 9.50019V13.7223C3.1875 14.0023 3.29944 14.2708 3.4987 14.4687C3.69796 14.6667 3.96821 14.7779 4.25 14.7779C4.53179 14.7779 4.80204 14.6667 5.0013 14.4687C5.20056 14.2708 5.3125 14.0023 5.3125 13.7223V9.50019C5.3125 9.22025 5.20056 8.95177 5.0013 8.75382C4.80204 8.55587 4.53179 8.44466 4.25 8.44466ZM8.5 8.44466C8.21821 8.44466 7.94796 8.55587 7.7487 8.75382C7.54944 8.95177 7.4375 9.22025 7.4375 9.50019V13.7223C7.4375 14.0023 7.54944 14.2708 7.7487 14.4687C7.94796 14.6667 8.21821 14.7779 8.5 14.7779C8.78179 14.7779 9.05204 14.6667 9.2513 14.4687C9.45056 14.2708 9.5625 14.0023 9.5625 13.7223V9.50019C9.5625 9.22025 9.45056 8.95177 9.2513 8.75382C9.05204 8.55587 8.78179 8.44466 8.5 8.44466V8.44466ZM12.75 8.44466V13.7223H13.8125C14.0943 13.7223 14.3645 13.6111 14.5638 13.4132C14.7631 13.2152 14.875 12.9467 14.875 12.6668V9.50019C14.875 9.22025 14.7631 8.95177 14.5638 8.75382C14.3645 8.55587 14.0943 8.44466 13.8125 8.44466H12.75Z" fill="black"/>
</svg>
