<svg width="24" height="21" viewBox="0 0 24 21" fill="none" xmlns="http://www.w3.org/2000/svg">
<path d="M21.75 10.5H2.25C1.65326 10.5 1.08097 10.7371 0.65901 11.159C0.237053 11.581 0 12.1533 0 12.75C0 13.3467 0.237053 13.919 0.65901 14.341C1.08097 14.7629 1.65326 15 2.25 15H21.75C22.3467 15 22.919 14.7629 23.341 14.341C23.7629 13.919 24 13.3467 24 12.75C24 12.1533 23.7629 11.581 23.341 11.159C22.919 10.7371 22.3467 10.5 21.75 10.5ZM22.5 16.5H1.5C1.30109 16.5 1.11032 16.579 0.96967 16.7197C0.829018 16.8603 0.75 17.0511 0.75 17.25V18C0.75 18.7957 1.06607 19.5587 1.62868 20.1213C2.19129 20.6839 2.95435 21 3.75 21H20.25C21.0457 21 21.8087 20.6839 22.3713 20.1213C22.9339 19.5587 23.25 18.7957 23.25 18V17.25C23.25 17.0511 23.171 16.8603 23.0303 16.7197C22.8897 16.579 22.6989 16.5 22.5 16.5ZM2.74875 9H21.2512C22.8717 9 23.8116 6.94219 22.8834 5.44312C21 2.4 16.8539 0.0046875 12 0C7.14656 0.0046875 3 2.4 1.11656 5.44266C0.1875 6.94172 1.12828 9 2.74875 9ZM18 3.75C18.1483 3.75 18.2933 3.79399 18.4167 3.8764C18.54 3.95881 18.6361 4.07594 18.6929 4.21299C18.7497 4.35003 18.7645 4.50083 18.7356 4.64632C18.7066 4.7918 18.6352 4.92544 18.5303 5.03033C18.4254 5.13522 18.2918 5.20665 18.1463 5.23559C18.0008 5.26453 17.85 5.24968 17.713 5.19291C17.5759 5.13614 17.4588 5.04001 17.3764 4.91668C17.294 4.79334 17.25 4.64834 17.25 4.5C17.25 4.30109 17.329 4.11032 17.4697 3.96967C17.6103 3.82902 17.8011 3.75 18 3.75ZM12 2.25C12.1483 2.25 12.2933 2.29399 12.4167 2.3764C12.54 2.45881 12.6361 2.57594 12.6929 2.71299C12.7497 2.85003 12.7645 3.00083 12.7356 3.14632C12.7066 3.2918 12.6352 3.42544 12.5303 3.53033C12.4254 3.63522 12.2918 3.70665 12.1463 3.73559C12.0008 3.76453 11.85 3.74968 11.713 3.69291C11.5759 3.63614 11.4588 3.54001 11.3764 3.41668C11.294 3.29334 11.25 3.14834 11.25 3C11.25 2.80109 11.329 2.61032 11.4697 2.46967C11.6103 2.32902 11.8011 2.25 12 2.25ZM6 3.75C6.14834 3.75 6.29334 3.79399 6.41668 3.8764C6.54001 3.95881 6.63614 4.07594 6.69291 4.21299C6.74968 4.35003 6.76453 4.50083 6.73559 4.64632C6.70665 4.7918 6.63522 4.92544 6.53033 5.03033C6.42544 5.13522 6.2918 5.20665 6.14632 5.23559C6.00083 5.26453 5.85003 5.24968 5.71299 5.19291C5.57594 5.13614 5.45881 5.04001 5.3764 4.91668C5.29399 4.79334 5.25 4.64834 5.25 4.5C5.25 4.30109 5.32902 4.11032 5.46967 3.96967C5.61032 3.82902 5.80109 3.75 6 3.75Z" fill="black"/>
</svg>
