<svg width="23" height="23" viewBox="0 0 23 23" fill="none" xmlns="http://www.w3.org/2000/svg">
<path d="M23 7.19099C23.0012 5.39239 22.3277 3.65874 21.1127 2.33243C19.8977 1.00611 18.2294 0.183557 16.4373 0.0272153C14.6452 -0.129126 12.8597 0.392111 11.4332 1.48799C10.0068 2.58386 9.04328 4.1747 8.73287 5.94631C8.11906 8.09215 7.53544 9.22615 7.23069 9.72632L4.52246 12.4313C4.42168 12.5318 4.35302 12.6599 4.32518 12.7995C4.29734 12.9391 4.31157 13.0838 4.36608 13.2152C4.42059 13.3467 4.51291 13.459 4.63134 13.538C4.74978 13.6169 4.88899 13.6589 5.03133 13.6587H5.59051L2.71121 16.5375C2.13205 16.5706 1.57643 16.778 1.11736 17.1326C0.658286 17.4872 0.317238 17.9723 0.139026 18.5243C-0.0391863 19.0763 -0.0462261 19.6692 0.118832 20.2253C0.283889 20.7813 0.613323 21.2744 1.06385 21.6398C1.1731 21.7289 1.27228 21.8281 1.36141 21.9373C1.72778 22.3885 2.22234 22.7181 2.77984 22.8825C3.33735 23.047 3.93161 23.0386 4.48427 22.8585C5.03692 22.6784 5.52199 22.3351 5.87551 21.8737C6.22903 21.4124 6.43439 20.8548 6.46451 20.2744L9.34381 17.3984V17.9719C9.34384 18.1139 9.38596 18.2528 9.46485 18.3709C9.54374 18.489 9.65586 18.5811 9.78705 18.6355C9.91825 18.6899 10.0626 18.7043 10.202 18.6767C10.3413 18.6492 10.4694 18.581 10.57 18.4807L13.261 15.7901C13.7569 15.4854 14.9198 14.8832 17.1551 14.2523C17.4944 14.189 17.8265 14.1014 18.147 13.9907C18.3353 13.9418 18.515 13.8757 18.6789 13.7837C19.9631 13.2251 21.0562 12.3036 21.8239 11.1324C22.5915 9.96118 23.0003 8.59128 23 7.19099ZM7.62313 13.6587H9.34381V15.3647L5.34183 19.3661C5.24264 19.4662 5.16416 19.5848 5.11089 19.7153C5.05761 19.8458 5.03057 19.9855 5.03133 20.1264C5.03148 20.4235 4.93952 20.7134 4.76811 20.9561C4.5967 21.1988 4.35427 21.3824 4.07418 21.4817C3.79408 21.581 3.4901 21.5911 3.20405 21.5105C2.91801 21.4299 2.66398 21.2627 2.4769 21.0318C2.32561 20.8458 2.15557 20.6758 1.96947 20.5245C1.73856 20.3374 1.57131 20.0834 1.49073 19.7975C1.41015 19.5115 1.4202 19.2075 1.51951 18.9275C1.61881 18.6474 1.80248 18.405 2.04524 18.2336C2.288 18.0623 2.57791 17.9703 2.87509 17.9705C3.01181 17.9711 3.14731 17.9447 3.27384 17.8929C3.40037 17.8411 3.51546 17.7649 3.61252 17.6686L7.62313 13.6587Z" fill="black"/>
</svg>
