<svg width="49" height="57" viewBox="0 0 49 57" fill="none" xmlns="http://www.w3.org/2000/svg">
<path d="M2.57634e-07 22.3889V19.3354C-0.000109053 17.9996 0.292753 16.68 0.858062 15.469C1.42337 14.258 2.24745 13.1849 3.27254 12.325C4.29764 11.465 5.49895 10.839 6.79228 10.4907C8.08562 10.1425 9.43968 10.0805 10.7596 10.3091C11.6187 7.33733 13.4236 4.72468 15.902 2.86514C18.3805 1.0056 21.3982 0 24.5 0C27.6018 0 30.6195 1.0056 33.098 2.86514C35.5764 4.72468 37.3813 7.33733 38.2404 10.3091C39.5603 10.0805 40.9144 10.1425 42.2077 10.4907C43.5011 10.839 44.7024 11.465 45.7275 12.325C46.7526 13.1849 47.5766 14.258 48.1419 15.469C48.7072 16.68 49.0001 17.9996 49 19.3354V22.3889C49.0009 28.516 46.6926 34.4196 42.5327 38.9293C38.3729 43.439 32.6653 46.2254 26.5417 46.736V52.9245H22.4583V46.736C16.3347 46.2254 10.6271 43.439 6.46729 38.9293C2.30744 34.4196 -0.000890379 28.516 2.57634e-07 22.3889ZM18.3178 20.3492H30.6822C30.5006 18.7359 30.7529 17.1036 31.4131 15.6196C32.0733 14.1357 33.1176 12.8536 34.4388 11.9051C33.91 9.67296 32.6408 7.68426 30.837 6.26108C29.0331 4.83789 26.8003 4.06359 24.5 4.06359C22.1997 4.06359 19.9669 4.83789 18.163 6.26108C16.3592 7.68426 15.09 9.67296 14.5612 11.9051C15.8831 12.854 16.9278 14.1367 17.588 15.6214C18.2482 17.1061 18.5001 18.7393 18.3178 20.3532V20.3492ZM13.6669 20.3492C13.8183 19.6789 13.8166 18.9834 13.6618 18.3139C13.5071 17.6444 13.2033 17.0183 12.7729 16.4817C12.3426 15.9452 11.7967 15.5121 11.1757 15.2145C10.5547 14.9168 9.87448 14.7623 9.18546 14.7623C8.49644 14.7623 7.81624 14.9168 7.19524 15.2145C6.57424 15.5121 6.02835 15.9452 5.59799 16.4817C5.16763 17.0183 4.86382 17.6444 4.70907 18.3139C4.55432 18.9834 4.55259 19.6789 4.704 20.3492H13.6669ZM35.3331 20.3492H44.2919C44.4433 19.6789 44.4416 18.9834 44.2868 18.3139C44.1321 17.6444 43.8283 17.0183 43.3979 16.4817C42.9676 15.9452 42.4217 15.5121 41.8007 15.2145C41.1797 14.9168 40.4995 14.7623 39.8105 14.7623C39.1214 14.7623 38.4412 14.9168 37.8202 15.2145C37.1992 15.5121 36.6533 15.9452 36.223 16.4817C35.7926 17.0183 35.4888 17.6444 35.3341 18.3139C35.1793 18.9834 35.1776 19.6789 35.329 20.3492H35.3331ZM24.5 42.746C29.562 42.746 34.4436 40.8709 38.1973 37.4847C41.9511 34.0985 44.3094 29.4426 44.8146 24.4206H4.18542C4.69061 29.4426 7.0489 34.0985 10.8027 37.4847C14.5564 40.8709 19.438 42.746 24.5 42.746V42.746ZM16.3333 52.9286H32.6667C33.2082 52.9286 33.7275 53.1431 34.1103 53.5248C34.4932 53.9066 34.7083 54.4244 34.7083 54.9643C34.7083 55.5042 34.4932 56.022 34.1103 56.4038C33.7275 56.7855 33.2082 57 32.6667 57H16.3333C15.7919 57 15.2725 56.7855 14.8897 56.4038C14.5068 56.022 14.2917 55.5042 14.2917 54.9643C14.2917 54.4244 14.5068 53.9066 14.8897 53.5248C15.2725 53.1431 15.7919 52.9286 16.3333 52.9286V52.9286Z" fill="black"/>
</svg>
