<svg width="30" height="24" viewBox="0 0 30 24" fill="none" xmlns="http://www.w3.org/2000/svg">
<path d="M19.6557 11.5849C19.6549 9.08783 20.2428 6.63506 21.3596 4.47599L21.8061 3.60317C20.8702 3.35295 19.9165 3.19547 18.956 3.13253C17.6705 2.02012 15.7544 0.700361 13.5454 0.280408L12.1877 0L12.9712 4.07183C10.5295 5.00258 8.37556 6.89302 6.94994 8.19369C6.67416 7.93435 6.38548 7.68093 6.08391 7.43343C3.75711 5.52455 1.24397 5.34025 1.1385 5.33367L0 5.26587L0.156448 6.53692C0.173441 6.66857 0.554308 9.4812 2.01098 11.5737C0.554308 13.6669 0.175785 16.4776 0.156448 16.6112L0 17.904L1.1385 17.8144C1.24397 17.8079 3.75711 17.6242 6.08391 15.7147C6.38001 15.472 6.66439 15.2225 6.93705 14.9663C8.36501 16.2715 10.5195 18.1653 12.9641 19.096L12.1877 23.1698L13.5454 22.8921C15.7421 22.4747 17.6517 21.1543 18.9361 20.0406C19.91 19.9773 20.877 19.8181 21.826 19.5647L21.3625 18.6971C20.2445 16.5373 19.6556 14.0834 19.6557 11.5849Z" fill="black"/>
<path d="M29.273 9.33097C28.9302 8.68064 28.3038 7.69197 27.2696 6.67961C26.1931 5.63807 24.9639 4.81405 23.6368 4.24414L22.9823 5.52967C22.0321 7.3676 21.5312 9.45496 21.5303 11.5803C21.5293 13.7057 22.0284 15.7936 22.977 17.6326L23.6655 18.9208C24.9788 18.3578 26.1962 17.5453 27.2644 16.5189C29.1242 14.7101 30.0002 12.4411 30.0002 11.5854C30.0002 10.7751 29.5314 9.8253 29.273 9.33097ZM24.3751 11.5854C24.1896 11.5854 24.0084 11.5237 23.8542 11.4079C23.7 11.2922 23.5799 11.1277 23.5089 10.9353C23.4379 10.7428 23.4194 10.5311 23.4555 10.3268C23.4917 10.1225 23.581 9.93483 23.7121 9.78754C23.8432 9.64025 24.0103 9.53995 24.1922 9.49931C24.374 9.45867 24.5625 9.47953 24.7338 9.55924C24.9051 9.63895 25.0516 9.77394 25.1546 9.94713C25.2576 10.1203 25.3126 10.3239 25.3126 10.5322C25.3126 10.8116 25.2138 11.0794 25.038 11.277C24.8622 11.4745 24.6237 11.5854 24.3751 11.5854Z" fill="black"/>
</svg>
