<svg width="48" height="70" viewBox="0 0 48 70" fill="none" xmlns="http://www.w3.org/2000/svg">
<path d="M26.6869 15.5L27.2672 20.375H41.9577L40.7389 30.125H23.4779L22.3442 20.375H22.3577L21.7775 15.5L21.7706 15.4407L20.3933 3.59677L20.0767 0.875H0.84375V5.75H15.7358L16.8696 15.5H2.95767L9.12759 64.8547C9.27655 66.0329 9.84984 67.1165 10.7401 67.9025C11.6304 68.6886 12.7767 69.1232 13.9644 69.125H36.4731C37.6609 69.1233 38.8073 68.6888 39.6977 67.9027C40.5882 67.1167 41.1615 66.033 41.3105 64.8547L47.4798 15.5H26.6869ZM8.47983 20.375H17.4364L18.5702 30.125H9.69858L8.47983 20.375ZM36.4753 64.25H13.9642L10.308 35H19.137L21.2627 53.2812H26.1704L24.0446 35H40.1302L36.4753 64.25Z" fill="black"/>
</svg>
