<svg width="22" height="25" viewBox="0 0 22 25" fill="none" xmlns="http://www.w3.org/2000/svg">
<path d="M0 3.05571C0 1.34483 1.40642 -0.103555 3.18997 0.00581657C10.178 0.433927 16.3066 2.77135 21.1072 7.32901C22.4696 8.62115 22.2009 10.732 20.7882 11.8101L20.4048 12.1038L19.781 11.4148L19.77 11.4039C15.1563 6.69309 8.46992 3.92756 1.3687 3.92756H0V3.05571ZM0 5.48844V22.6551C0 24.58 2.20941 25.6831 3.76354 24.5316L6.29037 22.6597V22.6629C6.29037 23.0772 6.45593 23.4747 6.75063 23.7677C7.04532 24.0607 7.44502 24.2253 7.86178 24.2253C8.27855 24.2253 8.67824 24.0607 8.97294 23.7677C9.26764 23.4747 9.4332 23.0772 9.4332 22.6629V19.5348C9.43479 19.3367 9.51202 19.1466 9.64927 19.003C9.78651 18.8594 9.97351 18.7729 10.1724 18.7612C10.3713 18.7495 10.5673 18.8134 10.7206 18.9399C10.874 19.0664 10.9732 19.2461 10.9983 19.4427V20.3176C10.9983 20.732 11.1639 21.1294 11.4586 21.4224C11.7533 21.7155 12.153 21.8801 12.5697 21.8801C12.9865 21.8801 13.3862 21.7155 13.6809 21.4224C13.9756 21.1294 14.1412 20.732 14.1412 20.3176V16.8209C15.4376 15.8756 17.4191 14.3772 19.154 13.0585L18.6338 12.482C14.3297 8.09461 8.06135 5.48844 1.36713 5.48844H0ZM6.67537 9.77268C6.67526 9.92605 6.64478 10.0779 6.58565 10.2196C6.52653 10.3612 6.43992 10.4899 6.33077 10.5983C6.22162 10.7067 6.09207 10.7926 5.94952 10.8512C5.80697 10.9098 5.6542 10.9399 5.49995 10.9398C5.34569 10.9397 5.19297 10.9094 5.0505 10.8506C4.90802 10.7918 4.77859 10.7057 4.66959 10.5972C4.56059 10.4887 4.47415 10.3599 4.41522 10.2181C4.35628 10.0764 4.326 9.92449 4.3261 9.77111C4.3261 9.46136 4.44986 9.16429 4.67014 8.94526C4.89043 8.72623 5.1892 8.60318 5.50073 8.60318C5.81227 8.60318 6.11104 8.72623 6.33133 8.94526C6.55161 9.16429 6.67537 9.46136 6.67537 9.77111V9.77268ZM11.3503 12.8976C11.3503 13.2073 11.2266 13.5044 11.0063 13.7234C10.786 13.9424 10.4872 14.0655 10.1757 14.0655C9.86416 14.0655 9.56539 13.9424 9.3451 13.7234C9.12481 13.5044 9.00106 13.2073 9.00106 12.8976C9.00106 12.5878 9.12481 12.2907 9.3451 12.0717C9.56539 11.8527 9.86416 11.7296 10.1757 11.7296C10.4872 11.7296 10.786 11.8527 11.0063 12.0717C11.2266 12.2907 11.3503 12.5878 11.3503 12.8976ZM6.68794 16.8068C6.68794 17.1182 6.56352 17.4169 6.34205 17.6371C6.12059 17.8573 5.82022 17.981 5.50702 17.981C5.19382 17.981 4.89345 17.8573 4.67199 17.6371C4.45052 17.4169 4.3261 17.1182 4.3261 16.8068C4.3261 16.4954 4.45052 16.1967 4.67199 15.9765C4.89345 15.7563 5.19382 15.6326 5.50702 15.6326C5.82022 15.6326 6.12059 15.7563 6.34205 15.9765C6.56352 16.1967 6.68794 16.4954 6.68794 16.8068Z" fill="black"/>
</svg>
