<svg width="53" height="28" viewBox="0 0 83 58" fill="none" xmlns="http://www.w3.org/2000/svg">
<path d="M82.2984 29.1705C81.9445 28.5551 81.4703 28.0172 80.9038 27.5888C80.3374 27.1603 79.6904 26.8501 79.0013 26.6765C75.9665 25.9133 72.8175 25.7105 69.7096 26.078C70.5137 21.5407 70.2168 16.877 68.8437 12.4779C68.4431 11.2266 67.5901 10.169 66.4511 9.51126C65.3122 8.85352 63.9687 8.64272 62.6826 8.91994C59.588 9.60428 56.6357 10.8194 53.957 12.5112C51.8217 8.02002 48.6485 4.09952 44.6986 1.07245C43.7785 0.376594 42.6558 0 41.5015 0C40.3472 0 39.2245 0.376594 38.3044 1.07245C34.3545 4.09952 31.1813 8.02002 29.046 12.5112C26.3673 10.8194 23.415 9.60428 20.3204 8.91994C19.0343 8.64272 17.6908 8.85352 16.5518 9.51126C15.4129 10.169 14.5599 11.2266 14.1593 12.4779C12.7862 16.877 12.4893 21.5407 13.2934 26.078C10.1855 25.7105 7.03648 25.9133 4.00166 26.6765C3.31334 26.8497 2.66691 27.1592 2.1008 27.5868C1.53469 28.0143 1.06045 28.5512 0.70627 29.1654C0.352093 29.7796 0.125209 30.4586 0.039104 31.1621C-0.0470008 31.8656 0.00943156 32.5792 0.205047 33.2605C1.37067 37.4502 4.96746 45.464 15.891 51.7486C26.8146 58.0332 36.3394 58 41.4682 58H41.5348C46.6636 58 56.255 58 67.112 51.7486C77.9689 45.4972 81.6323 37.4502 82.7979 33.2605C82.9912 32.5798 83.0466 31.8675 82.9608 31.1652C82.875 30.4629 82.6498 29.7848 82.2984 29.1705V29.1705ZM63.7816 14.1405C64.7141 16.9337 65.58 21.9548 63.6817 28.4057L63.5818 28.7714C62.8106 31.2697 61.7487 33.6692 60.4179 35.9206C58.8027 38.7044 56.857 41.2834 54.6231 43.6018C56.3216 39.6116 57.4872 34.7235 57.4872 28.7382C57.5148 24.9576 56.9874 21.1934 55.922 17.5655C58.2937 15.9242 60.9635 14.7608 63.7816 14.1405V14.1405ZM41.5015 5.32872C44.6986 7.72287 52.1586 14.7723 52.1586 28.7382C52.1586 42.704 44.5987 49.8865 41.5015 52.1476C38.4043 49.8865 30.8443 42.8703 30.8443 28.7382C30.8443 14.606 38.3044 7.72287 41.5015 5.32872V5.32872ZM19.2214 14.1405C22.0395 14.7608 24.7093 15.9242 27.081 17.5655C26.0156 21.1934 25.4882 24.9576 25.5158 28.7382C25.5158 34.7235 26.6814 39.6116 28.3799 43.6018C26.1459 41.2834 24.2003 38.7044 22.5851 35.9206C21.2477 33.6608 20.1856 31.2496 19.4212 28.7382L19.3213 28.4389C17.3897 21.9548 18.2889 16.9337 19.2214 14.1405V14.1405ZM5.3005 31.8306C7.36532 31.2986 10.5958 30.8996 14.7587 31.6311C15.6041 34.0481 16.6861 36.3759 17.9892 38.5808C20.8449 43.5073 24.5944 47.8599 29.046 51.4161C25.3674 50.477 21.837 49.0334 18.5553 47.1266C9.29693 41.773 6.2996 35.2223 5.3005 31.8306V31.8306ZM64.4477 47.1266C61.166 49.0334 57.6356 50.477 53.957 51.4161C58.4086 47.8599 62.1581 43.5073 65.0138 38.5808C66.3168 36.3759 67.3989 34.0481 68.2443 31.6311C71.3635 31.0337 74.5731 31.0903 77.6692 31.7974C76.7034 35.2223 73.7061 41.773 64.4477 47.1266V47.1266Z" fill="black"/>
</svg>
