<svg width="26" height="20" viewBox="0 0 26 20" fill="none" xmlns="http://www.w3.org/2000/svg">
<path d="M25.0714 0H0.928571C0.414955 0 0 0.40625 0 0.909091V5.45455H26V0.909091C26 0.40625 25.585 0 25.0714 0ZM0 19.0909C0 19.5938 0.414955 20 0.928571 20H25.0714C25.585 20 26 19.5938 26 19.0909V7.95455H0V19.0909ZM16.8013 13.8636C16.8013 13.7386 16.9058 13.6364 17.0335 13.6364H21.8214C21.9491 13.6364 22.0536 13.7386 22.0536 13.8636V15.9091C22.0536 16.0341 21.9491 16.1364 21.8214 16.1364H17.0335C16.9058 16.1364 16.8013 16.0341 16.8013 15.9091V13.8636Z" fill="black"/>
</svg>
