<svg width="18" height="18" viewBox="0 0 18 18" fill="none" xmlns="http://www.w3.org/2000/svg">
<path d="M16.7143 2.916C17.1052 3.14168 17.4298 3.46629 17.6555 3.85718C17.8812 4.24807 18 4.69149 18 5.14286V12.8571C18 14.2211 17.4582 15.5292 16.4937 16.4937C15.5292 17.4582 14.2211 18 12.8571 18H5.14286C4.69149 18 4.24807 17.8812 3.85718 17.6555C3.46629 17.4298 3.14168 17.1052 2.916 16.7143H12.8571C13.8801 16.7143 14.8612 16.3079 15.5846 15.5846C16.3079 14.8612 16.7143 13.8801 16.7143 12.8571V2.916ZM15.4286 2.57143C15.4286 1.88944 15.1577 1.23539 14.6754 0.753154C14.1932 0.270917 13.5391 0 12.8571 0H2.57143C1.88944 0 1.23539 0.270917 0.753154 0.753154C0.270917 1.23539 0 1.88944 0 2.57143V12.8571C0 13.5391 0.270917 14.1932 0.753154 14.6754C1.23539 15.1577 1.88944 15.4286 2.57143 15.4286H12.8571C13.5391 15.4286 14.1932 15.1577 14.6754 14.6754C15.1577 14.1932 15.4286 13.5391 15.4286 12.8571V2.57143ZM8.35714 7.07143C8.35714 7.24192 11.5037 8.0483 11.3831 8.16885C11.2626 8.28941 11.0991 8.35714 10.9286 8.35714H8.35714V10.9286C8.35714 11.0991 8.28941 11.2626 8.16885 11.3831C8.0483 11.5037 7.88478 11.5714 7.71429 11.5714C7.54379 11.5714 7.38028 11.5037 7.25972 11.3831C7.13916 11.2626 7.07143 11.0991 7.07143 10.9286V8.35714H4.5C4.3295 8.35714 4.16599 8.28941 4.04543 8.16885C3.92487 8.0483 3.85714 7.88478 3.85714 7.71429C3.85714 7.54379 3.92487 7.38028 4.04543 7.25972C4.16599 7.13916 4.3295 7.07143 4.5 7.07143H7.07143V4.5C7.07143 4.3295 7.13916 4.16599 7.25972 4.04543C7.38028 3.92487 7.54379 3.85714 7.71429 3.85714C7.88478 3.85714 8.0483 3.92487 8.16885 4.04543C8.28941 4.16599 8.35714 4.3295 8.35714 4.5V7.07143H10.9286C11.0991 7.07143 11.2626 7.13916 11.3831 7.25972C11.5037 7.38028 8.35714 6.90093 8.35714 7.07143Z" fill="black"/>
</svg>
